<svg viewBox="0 0 71.0313 72.0179" xmlns="http://www.w3.org/2000/svg" xmlns:xlink="http://www.w3.org/1999/xlink" width="71.031281" height="72.017853" fill="none">
	<rect id="Icon/large/play-white" width="71.031281" height="72.017830" x="0.000000" y="0.000031" fill="rgb(255,255,255)" fill-opacity="0" />
	<g id="Group">
		<g id="Group">
			<g id="Group">
				<path id="Vector" d="M35.5156 3.05176e-05C15.9311 3.05176e-05 0 16.154 0 36.0089C0 55.8639 15.9311 72.0179 35.5156 72.0179C55.1002 72.0179 71.0313 55.8639 71.0313 36.0089C71.0313 16.154 55.1002 3.05176e-05 35.5156 3.05176e-05ZM35.5156 69.0172C17.5641 69.0172 2.95959 54.2098 2.95959 36.0089C2.95959 17.8081 17.5641 3.00073 35.5156 3.00073C53.4671 3.00073 68.0717 17.8081 68.0717 36.0089C68.0717 54.2098 53.4671 69.0172 35.5156 69.0172Z" fill="rgb(255,255,255)" fill-rule="nonzero" />
				<path id="Vector" d="M49.635 34.7474L28.9176 21.244C28.4638 20.9437 27.8771 20.9276 27.4089 21.1883C26.9319 21.4521 26.6371 21.9562 26.6371 22.5056L26.6371 49.5123C26.6371 50.0617 26.9319 50.5658 27.4089 50.8296C27.6285 50.9513 27.8742 51.0127 28.117 51.0127C28.3944 51.0127 28.6748 50.9335 28.9176 50.7739L49.635 37.2705C50.057 36.9951 50.3142 36.5189 50.3142 36.009C50.3142 35.4991 50.057 35.0229 49.635 34.7474ZM29.5967 46.7635L29.5967 25.2544L46.0973 36.009L29.5967 46.7635Z" fill="rgb(255,255,255)" fill-rule="nonzero" />
			</g>
		</g>
	</g>
</svg>
