<svg xmlns="http://www.w3.org/2000/svg" display="none">
    <symbol viewBox="0 0 79.5652 23.04" id="logo-icon" >
        <path id="Logo" d="M28.4163 0L23.9163 0L23.9163 22.68L28.4163 22.68L28.4163 0ZM31.3493 3.51C31.3493 2.79 31.5993 2.18 32.0993 1.68C32.6193 1.16 33.2393 0.900001 33.9593 0.900001C34.6793 0.900001 35.2893 1.16 35.7893 1.68C36.3093 2.18 36.5693 2.79 36.5693 3.51C36.5693 4.23 36.3093 4.85 35.7893 5.37C35.2893 5.87 34.6793 6.12 33.9593 6.12C33.2393 6.12 32.6193 5.87 32.0993 5.37C31.5993 4.85 31.3493 4.23 31.3493 3.51ZM55.8122 3.51Q55.8122 2.93671 56.0235 2.4564Q56.2103 2.03188 56.5622 1.68C57.0822 1.16 57.7022 0.900001 58.4222 0.900001C59.1422 0.900001 59.7522 1.16 60.2522 1.68C60.7722 2.18 61.0322 2.79 61.0322 3.51C61.0322 4.23 60.7722 4.85 60.2522 5.37C59.7522 5.87 59.1422 6.12 58.4222 6.12C57.7022 6.12 57.0822 5.87 56.5622 5.37Q56.1846 4.97731 55.9971 4.50858Q55.8122 4.04626 55.8122 3.51ZM9.18 1.44L13.05 1.44L22.29 22.68L17.01 22.68L15.18 18.18L6.93 18.18L5.16 22.68L0 22.68L9.18 1.44ZM10.98 7.62L8.4 14.22L13.59 14.22L10.98 7.62ZM63.9952 12.24C63.5752 13.18 63.3652 14.23 63.3652 15.39C63.3652 16.55 63.5752 17.6 63.9952 18.54Q64.4684 19.5993 65.1957 20.4384Q65.4365 20.7163 65.7052 20.97C66.4452 21.63 67.3052 22.14 68.2852 22.5C69.2852 22.86 70.3452 23.04 71.4652 23.04C72.5852 23.04 73.6352 22.86 74.6152 22.5C75.6152 22.14 76.4752 21.63 77.1952 20.97C77.9352 20.29 78.5152 19.48 78.9352 18.54Q79.5652 17.13 79.5652 15.39Q79.5652 13.65 78.9352 12.24C78.5152 11.3 77.9352 10.5 77.1952 9.84C76.4752 9.16 75.6152 8.64 74.6152 8.28C73.6352 7.92 72.5852 7.74 71.4652 7.74C70.3452 7.74 69.2852 7.92 68.2852 8.28Q67.1826 8.68501 66.2826 9.36001Q65.9827 9.58501 65.7052 9.84C64.9852 10.5 64.4152 11.3 63.9952 12.24ZM31.7093 8.1L36.2093 8.1L36.2093 22.68L31.7093 22.68L31.7093 8.1ZM42.7723 8.1L37.9123 8.1L43.9423 22.68L48.7123 22.68L54.4723 8.1L49.9423 8.1L46.5223 18L46.4623 18L42.7723 8.1ZM56.1722 8.1L60.6722 8.1L60.6722 22.68L56.1722 22.68L56.1722 8.1ZM68.7952 18.06C68.1752 17.38 67.8652 16.49 67.8652 15.39C67.8652 14.29 68.1752 13.4 68.7952 12.72Q68.9871 12.5161 69.2089 12.353Q70.097 11.7 71.4652 11.7C72.6052 11.7 73.4852 12.04 74.1052 12.72Q74.3083 12.9358 74.4685 13.1799Q75.0652 14.0891 75.0652 15.39Q75.0652 16.6909 74.4684 17.6001Q74.3083 17.8442 74.1052 18.06C73.4852 18.74 72.6052 19.08 71.4652 19.08Q70.097 19.08 69.2089 18.427Q68.9871 18.2639 68.7952 18.06Z"  fill-rule="evenodd" />
    </symbol>
    <symbol viewBox="0 0 71 72"  id="play"> 
        <path id="Vector" d="M35.5156 3.05176e-05C15.9311 3.05176e-05 0 16.154 0 36.0089C0 55.8639 15.9311 72.0179 35.5156 72.0179C55.1002 72.0179 71.0313 55.8639 71.0313 36.0089C71.0313 16.154 55.1002 3.05176e-05 35.5156 3.05176e-05ZM35.5156 69.0172C17.5641 69.0172 2.95959 54.2098 2.95959 36.0089C2.95959 17.8081 17.5641 3.00073 35.5156 3.00073C53.4671 3.00073 68.0717 17.8081 68.0717 36.0089C68.0717 54.2098 53.4671 69.0172 35.5156 69.0172Z" fill="rgb(255,255,255)" fill-rule="nonzero" />
				<path id="Vector" d="M49.635 34.7474L28.9176 21.244C28.4638 20.9437 27.8771 20.9276 27.4089 21.1883C26.9319 21.4521 26.6371 21.9562 26.6371 22.5056L26.6371 49.5123C26.6371 50.0617 26.9319 50.5658 27.4089 50.8296C27.6285 50.9513 27.8742 51.0127 28.117 51.0127C28.3944 51.0127 28.6748 50.9335 28.9176 50.7739L49.635 37.2705C50.057 36.9951 50.3142 36.5189 50.3142 36.009C50.3142 35.4991 50.057 35.0229 49.635 34.7474ZM29.5967 46.7635L29.5967 25.2544L46.0973 36.009L29.5967 46.7635Z" fill="rgb(255,255,255)" fill-rule="nonzero" />
    </symbol>

</svg>